<svg width="24" height="24" viewBox="0 0 24 24" fill="none" xmlns="http://www.w3.org/2000/svg">
<path d="M4.83192 8.44305C4.86201 8.47956 4.88109 8.50618 4.88109 8.50618L5.27519 9.31724L2.80485 12.2816L3.23905 13.2012H4.15278C4.15278 13.2012 4.17661 12.8335 4.57739 12.6496C4.99298 12.4588 6.17119 12.7892 6.46588 11.8051C7.01226 12.9297 7.51621 13.9567 7.72721 14.3651C8.26923 15.4208 8.27592 16.0655 7.54818 16.9478C5.6591 19.2425 5.02612 20 5.02612 20C5.02612 20 2.78043 15.392 1.34473 12.4209C1.08724 11.8886 1.00412 11.4644 1.00645 11.1104C0.933789 10.0573 1.49238 9.20291 1.82456 8.80291C2.2204 8.32815 4.39487 5.70182 4.85435 5.14065C5.47949 4.37818 6.22059 4 8.06317 4H23.5312C23.5312 4 21.3315 6.61527 20.314 7.84815C18.1227 10.503 16.6727 11.2963 13.0986 10.1943C10.6623 9.44264 8.06011 8.36602 4.83192 8.44305Z" fill="white"/>
</svg>
