<svg width="230" height="64" viewBox="0 0 230 64" fill="none" xmlns="http://www.w3.org/2000/svg">
<path d="M154.366 17.7711C154.487 17.9177 154.563 18.0247 154.563 18.0247L156.141 21.2689L146.25 33.1264L147.989 36.8047H151.647C151.647 36.8047 151.743 35.3338 153.347 34.5984C155.011 33.8351 159.729 35.1569 160.909 31.2204C163.096 35.719 165.114 39.8266 165.959 41.4604C168.129 45.6832 168.156 48.2618 165.242 51.7911C157.679 60.9699 155.144 64 155.144 64C155.144 64 146.153 45.568 140.404 33.6838C139.373 31.5543 139.041 29.8577 139.05 28.4416C138.759 24.2292 140.995 20.8116 142.326 19.2116C143.91 17.3126 152.617 6.80727 154.456 4.56262C156.959 1.51273 159.927 0 167.304 0H229.236C229.236 0 220.429 10.4611 216.355 15.3926C207.581 26.0119 201.776 29.1852 187.465 24.7773C177.711 21.7705 167.291 17.4639 154.366 17.7722V17.7711ZM0 40.2153V24.9833H14.8713V28.3648H4.45789V31.5729H14.3127V34.8486H4.45905V40.2153H0ZM18.6298 40.2153V24.9635H34.0887V28.3648H23.0575V30.9504H33.6931V34.2493H23.0575V36.7721H34.0887V40.2153H18.6298ZM37.8473 40.2153V24.9635H42.2772V40.2153H37.8473ZM56.8239 31.0586L62.8096 24.9844H67.584V40.2397H63.1249V30.2359L57.2579 36.0099H56.2141L50.489 30.2301V40.2385H46.0346V24.9833H50.8323L56.8239 31.0586ZM77.376 34.183H83.3571L80.3665 29.1223L77.376 34.1841V34.183ZM82.6007 24.9635L91.8644 40.2153H86.9423L85.2876 37.4807H75.4432L73.7571 40.2153H68.864L78.1335 24.9635H82.6007ZM2.96727 52.8291H8.80407C10.5868 52.8291 12.722 52.3869 12.7488 50.2982C12.7604 49.7722 12.5382 49.2544 12.1263 48.8425C11.4572 48.1617 10.3343 47.7882 8.96465 47.7882H2.96727V52.8291ZM14.578 53.4284C13.9601 54.0486 12.8593 54.8096 11.015 55.1366L17.7908 60.5638H13.4575L7.01673 55.353H2.96844V60.5638H0V45.2806H8.96582C13.6518 45.2806 15.8196 47.8906 15.8511 50.3191C15.8599 50.8964 15.7517 51.4695 15.5331 52.0038C15.3145 52.5382 14.9901 53.0228 14.5792 53.4284H14.578ZM27.7737 58.2912C32.754 58.2912 35.022 55.5078 35.022 52.921C35.022 50.2586 32.7796 47.5729 27.7725 47.5729C25.2288 47.5729 23.2064 48.2548 21.9252 49.5418C21.48 49.9822 21.1288 50.5083 20.8927 51.0883C20.6567 51.6684 20.5409 52.2903 20.5521 52.9164C20.5754 55.5055 22.8433 58.2912 27.7737 58.2912ZM27.7737 45.0641C32.1257 45.0641 34.5647 46.5978 35.8481 47.8825C36.5156 48.5452 37.044 49.3345 37.4025 50.2041C37.7609 51.0737 37.9422 52.0061 37.9357 52.9466C37.9078 56.7284 34.7148 60.7988 27.7737 60.7988C20.7919 60.7988 17.6151 56.7075 17.6151 52.9036C17.6151 49.0007 20.7523 45.0641 27.7737 45.0641ZM48.3584 58.0166C50.0713 58.0166 52.9466 57.7792 52.9466 56.1862C52.9257 54.6001 50.5647 54.0404 48.5481 54.0404H42.9207V58.0166H48.3584ZM42.9207 47.7126V51.5107H48.5469C50.2865 51.5107 52.359 51.214 52.359 49.7955C52.359 48.3642 50.29 47.7126 48.3584 47.7126H42.9207ZM53.5564 52.6906C55.0284 53.4877 55.886 54.7619 55.886 56.2048C55.886 58.9743 53.1421 60.5638 48.3584 60.5638H39.9535V45.2806H48.3584C52.5452 45.2806 55.2471 47.0563 55.2471 49.7955C55.2471 50.9556 54.6397 51.9796 53.5564 52.6906ZM67.6212 58.2912C72.6004 58.2912 74.8684 55.5078 74.8684 52.921C74.8684 50.2586 72.6249 47.5729 67.6212 47.5729C65.0752 47.5729 63.0528 48.2548 61.7728 49.5418C61.3271 49.9818 60.9755 50.5079 60.7395 51.088C60.5034 51.6681 60.3878 52.2902 60.3997 52.9164C60.4207 55.5055 62.6921 58.2912 67.6212 58.2912ZM67.6212 45.0641C71.9744 45.0641 74.4145 46.5978 75.6922 47.8825C76.3603 48.5449 76.8893 49.3341 77.2484 50.2037C77.6075 51.0733 77.7893 52.0058 77.7833 52.9466C77.7542 56.7284 74.56 60.7988 67.6212 60.7988C60.6394 60.7988 57.4615 56.7075 57.4615 52.9036C57.4615 49.0007 60.601 45.0641 67.6212 45.0641ZM78.5094 47.7708V45.3027H92.089V47.7708H86.784V60.5638H83.8167V47.7708H78.5105H78.5094ZM94.4047 60.5638V45.2806H97.3463V60.5638H94.4058H94.4047ZM109.944 47.5927C107.286 47.5927 105.195 48.2909 103.873 49.6175C103.432 50.0529 103.084 50.5735 102.85 51.1475C102.616 51.7216 102.501 52.3372 102.512 52.9571C102.563 56.1501 105.479 58.2144 109.944 58.2144C111.958 58.2144 113.918 57.6291 115.323 56.6097L115.76 56.2909L118.035 57.8769L117.185 58.5053C115.255 59.9343 112.683 60.7197 109.944 60.7197C102.835 60.7197 99.6236 56.846 99.5968 53.006C99.5689 51.1628 100.295 49.3929 101.646 48.0291C102.96 46.7025 105.46 45.1235 109.944 45.1235C112.683 45.1235 115.255 45.9101 117.185 47.3391L118.079 47.9965L115.717 49.5023L115.286 49.1916C113.893 48.1606 111.997 47.5927 109.945 47.5927H109.944ZM128.347 51.4909C131.991 52.0064 136.12 52.5905 136.12 56.1652C136.097 59.0557 133.051 60.7779 127.979 60.7779C125.078 60.7779 121.384 59.9052 119.708 57.4592L119.161 56.6516L121.915 55.6393L122.255 56.128C123.214 57.5325 125.921 58.2912 127.979 58.2912C128.842 58.2912 133.156 58.1876 133.156 56.1443C133.174 54.7258 130.261 54.3151 127.687 53.9532C124.146 53.4435 120.134 52.8663 120.134 49.6593C120.108 48.7063 120.449 47.8557 121.136 47.1471C123.009 45.234 126.847 45.0863 127.979 45.0863C131 45.0863 133.414 45.5284 135.361 47.6765L136.074 48.4585L133.41 49.6256L133.04 49.1881C131.883 47.8173 129.921 47.6113 127.974 47.5927C126.292 47.5927 123.102 48.0175 123.102 49.6221C123.102 50.6787 125.385 51.0813 128.143 51.4607L128.347 51.4909Z" fill="white"/>
</svg>
